<svg width="792" height="229" viewBox="0 0 792 229" fill="none" xmlns="http://www.w3.org/2000/svg">
  <rect width="792" height="229" rx="114.5" fill="#292929" />
  <path
    d="M108.5 146h-36c-12.6 0-22.5-9.9-22.5-22.5S59.9 101 72.5 101c2.25 0 4.95.45 7.2 1.35C84.2 90.65 95.45 83 108.5 83c17.55 0 31.5 13.95 31.5 31.5S126.05 146 108.5 146m-36-36c-7.65 0-13.5 5.85-13.5 13.5S64.85 137 72.5 137h36c12.6 0 22.5-9.9 22.5-22.5S121.1 92 108.5 92c-10.35 0-19.35 7.2-22.05 17.55-.45 1.35-1.35 2.7-2.7 3.15s-2.7.45-4.05-.45c-2.25-1.35-4.5-2.25-7.2-2.25M59 96.5c-2.7 0-4.5-1.8-4.5-4.5 0-14.85 12.15-27 27-27 5.85 0 11.7 1.8 16.2 5.4 1.8 1.35 2.25 4.5.9 6.3s-4.5 2.25-6.3.9c-3.15-2.25-6.75-3.6-10.8-3.6-9.9 0-18 8.1-18 18 0 2.7-1.8 4.5-4.5 4.5"
    fill="#9381FF" />
  <path
    d="M249.77 83.27 231.59 146h-9.18l-14.58-50.49L192.71 146l-9.09.09-17.55-62.82h8.73l13.68 53.19 15.12-53.19h9.18l14.4 53.01 13.77-53.01zm53.963 36.18q0 2.34-.27 4.95h-39.42q.45 7.29 4.95 11.43 4.59 4.05 11.07 4.05 5.31 0 8.82-2.43 3.6-2.52 5.04-6.66h8.82q-1.98 7.11-7.92 11.61-5.94 4.41-14.76 4.41-7.02 0-12.6-3.15-5.49-3.15-8.64-8.91-3.15-5.85-3.15-13.5t3.06-13.41 8.55-8.82q5.58-3.15 12.78-3.15 7.02 0 12.42 3.06t8.28 8.46q2.97 5.31 2.97 12.06m-8.46-1.71q0-4.68-2.07-8.01-2.07-3.42-5.67-5.13-3.51-1.8-7.83-1.8-6.21 0-10.62 3.96-4.32 3.96-4.95 10.98zm16.21 3.42q0-7.56 3.06-13.23 3.06-5.76 8.37-8.91 5.4-3.15 11.97-3.15 6.48 0 11.25 2.79t7.11 7.02v-9h8.28V146h-8.28v-9.18q-2.43 4.32-7.29 7.2-4.77 2.79-11.16 2.79-6.57 0-11.88-3.24t-8.37-9.09-3.06-13.32m41.76.09q0-5.58-2.25-9.72t-6.12-6.3q-3.78-2.25-8.37-2.25t-8.37 2.16-6.03 6.3-2.25 9.72q0 5.67 2.25 9.9 2.25 4.14 6.03 6.39 3.78 2.16 8.37 2.16t8.37-2.16q3.87-2.25 6.12-6.39 2.25-4.23 2.25-9.81m32.111-17.82v29.07q0 3.6 1.53 5.13 1.53 1.44 5.31 1.44h6.03V146h-7.38q-6.84 0-10.26-3.15t-3.42-10.35v-29.07h-6.39v-6.75h6.39V84.26h8.19v12.42h12.87v6.75zm47.273-7.65q5.58 0 10.08 2.43 4.5 2.34 7.02 7.11 2.61 4.77 2.61 11.61V146h-8.1v-27.9q0-7.38-3.69-11.25-3.69-3.96-10.08-3.96-6.48 0-10.35 4.05-3.78 4.05-3.78 11.79V146h-8.19V79.4h8.19v24.3q2.43-3.78 6.66-5.85 4.32-2.07 9.63-2.07m78.088 23.67q0 2.34-.27 4.95h-39.42q.45 7.29 4.95 11.43 4.59 4.05 11.07 4.05 5.31 0 8.82-2.43 3.6-2.52 5.04-6.66h8.82q-1.98 7.11-7.92 11.61-5.94 4.41-14.76 4.41-7.02 0-12.6-3.15-5.49-3.15-8.64-8.91-3.15-5.85-3.15-13.5t3.06-13.41 8.55-8.82q5.58-3.15 12.78-3.15 7.02 0 12.42 3.06t8.28 8.46q2.97 5.31 2.97 12.06m-8.46-1.71q0-4.68-2.07-8.01-2.07-3.42-5.67-5.13-3.51-1.8-7.83-1.8-6.21 0-10.62 3.96-4.32 3.96-4.95 10.98zm27.461-13.05q2.16-4.23 6.12-6.57 4.05-2.34 9.81-2.34v8.46h-2.16q-13.77 0-13.77 14.94V146h-8.19V96.68h8.19zm89.014-20.97V146h-8.19V99.56L589.84 146h-5.76l-20.79-46.53V146h-8.19V83.72h8.82l23.04 51.48L610 83.72zm35.399 63.09q-6.93 0-12.6-3.15-5.58-3.15-8.82-8.91-3.15-5.85-3.15-13.5 0-7.56 3.24-13.32 3.33-5.85 9-8.91 5.67-3.15 12.69-3.15t12.69 3.15q5.67 3.06 8.91 8.82 3.33 5.76 3.33 13.41t-3.42 13.5q-3.33 5.76-9.09 8.91t-12.78 3.15m0-7.2q4.41 0 8.28-2.07t6.21-6.21q2.43-4.14 2.43-10.08t-2.34-10.08-6.12-6.12q-3.78-2.07-8.19-2.07-4.5 0-8.28 2.07-3.69 1.98-5.94 6.12t-2.25 10.08q0 6.03 2.16 10.17 2.25 4.14 5.94 6.21 3.69 1.98 8.1 1.98m60.089-43.83q9 0 14.58 5.49 5.58 5.4 5.58 15.66V146h-8.1v-27.9q0-7.38-3.69-11.25-3.69-3.96-10.08-3.96-6.48 0-10.35 4.05-3.78 4.05-3.78 11.79V146h-8.19V96.68h8.19v7.02q2.43-3.78 6.57-5.85 4.23-2.07 9.27-2.07"
    fill="#fff" />
</svg>